<svg width="437" height="659" viewBox="0 0 437 659" fill="none" xmlns="http://www.w3.org/2000/svg">
<path d="M273.933 649.35C264.501 647.861 248.019 642.4 244.345 630.485C241.367 622.045 238.587 568.826 239.877 542.813C241.565 507.962 259.239 466.459 264.402 402.021C268.175 354.56 256.756 314.249 256.756 314.249L181.694 309.682C181.694 309.682 199.566 495.253 195.892 509.551C180.204 570.713 218.232 621.549 219.92 634.556C219.622 639.52 218.431 656.102 222.402 658.087H283.962C283.962 658.187 283.763 650.939 273.933 649.35Z" fill="#E8945B"/>
<path d="M154.588 513.82C195.396 448.29 256.756 319.809 256.756 319.809L164.318 293.994C164.318 293.994 159.949 331.128 159.155 349.795C158.361 368.56 130.659 459.708 119.638 466.658C85.3832 488.402 93.4258 591.762 89.4542 604.372L86.972 607.45C86.972 607.45 76.1494 617.379 78.2345 624.329C80.3195 631.379 90.1492 636.045 91.44 644.683C92.7307 653.322 98.0924 657.988 102.858 657.988C107.624 657.988 125.595 657.988 125.595 657.988C125.595 657.988 129.07 651.932 120.631 650.144C112.191 648.357 109.014 638.23 109.511 628.896C109.808 624.428 109.61 619.365 109.312 615.195C110.901 599.11 121.525 566.94 154.588 513.82Z" fill="#FFB27D"/>
<path d="M277.905 165.713C269.962 139.004 250.898 118.054 241.466 109.416L236.402 105.643C235.012 104.451 233.423 103.26 231.537 101.969L231.438 101.87C230.643 101.274 229.75 100.777 228.856 100.281C227.764 99.6852 227.268 98.4938 227.466 97.203C228.062 93.5293 228.558 90.2528 228.856 87.4727C229.849 79.7281 229.849 75.4587 229.849 75.4587L214.757 63.544L200.459 52.1257C201.154 72.8772 192.715 86.6784 186.559 93.8272C176.332 106.635 168.19 125.798 165.013 144.663C162.531 158.961 161.34 174.946 161.439 191.726C161.439 197.882 161.637 204.237 161.935 210.492C164.02 244.35 161.24 279.796 160.049 296.774C159.652 301.739 199.764 321.001 217.438 322.689C238.388 324.873 251.395 311.568 253.48 303.327C254.175 300.448 290.217 207.017 277.905 165.713Z" fill="#FFB27D"/>
<path d="M261.721 305.313C261.721 305.313 282.77 393.283 273.139 394.078C262.714 394.971 218.828 394.177 214.856 355.752C212.672 333.908 261.721 305.313 261.721 305.313Z" fill="#233862"/>
<path d="M200.062 64.3383C200.062 64.3383 209.991 82.4089 228.856 87.4726C229.849 79.7281 229.849 75.4586 229.849 75.4586L214.757 63.5439L200.062 64.3383Z" fill="#E8945B"/>
<path d="M159.949 303.923C159.949 303.923 119.737 432.8 119.737 437.268C119.737 441.637 223.991 418.006 241.664 412.148C259.437 406.29 263.21 312.263 261.721 305.412C260.232 298.462 159.949 303.923 159.949 303.923Z" fill="#2B478B"/>
<path d="M236.601 74.8629C236.601 74.8629 199.268 81.0188 195.694 57.9837C192.218 35.0479 184.97 20.3531 208.7 15.4879C232.431 10.6228 238.388 18.6652 241.466 26.1119C244.643 33.4593 246.232 72.6785 236.601 74.8629Z" fill="#E8945B"/>
<path d="M159.949 296.774C159.949 296.774 251.097 307.001 257.65 289.824L261.721 305.412C261.721 305.412 213.466 331.128 158.162 309.781L159.949 296.774Z" fill="#4A75CB"/>
<path d="M349.294 300.944C344.032 297.866 328.145 294.093 328.145 294.093C328.145 294.093 298.656 255.073 292.699 249.214C286.841 243.356 256.061 163.329 256.061 163.329C256.061 163.329 243.551 222.307 250.104 241.371C256.657 260.335 318.316 301.043 318.316 301.043C318.316 301.043 326.159 305.214 328.145 309.483C330.131 313.752 341.251 313.752 344.031 313.057C346.812 312.362 358.925 324.178 359.818 321.1C360.613 317.823 354.556 304.022 349.294 300.944Z" fill="#E8945B"/>
<path d="M229.65 0.693785C201.055 -1.58987 190.63 2.08383 185.864 7.04828C186.162 4.46677 188.445 3.27529 188.445 3.27529C184.275 4.26819 182.985 8.63691 182.587 11.0199C180.701 11.0199 179.311 11.9134 179.311 11.9134C181.098 12.0127 181.793 12.3106 182.19 12.7078C181.992 13.2042 181.694 13.7007 181.495 14.1971C178.814 19.8566 180.006 48.9483 185.864 55.2035C191.623 61.4587 199.665 67.5154 199.665 67.5154C211.481 84.196 230.048 76.0543 236.104 75.5578C242.955 75.0614 247.125 58.7779 243.352 54.6078C239.579 50.3384 232.033 56.7922 224.487 56.4943C218.53 56.1964 214.161 45.6718 212.473 41.1045C212.374 40.8066 212.176 40.4094 211.977 40.0123C214.36 36.6365 215.949 27.1047 223.693 26.509C232.828 25.8139 245.14 33.6578 250.005 30.7784C254.969 27.899 267.38 3.67246 229.65 0.693785ZM200.658 49.5441C200.559 49.1469 200.559 48.7497 200.459 48.4519C199.268 43.9839 199.665 37.0336 203.835 38.9201C206.516 40.1116 207.906 40.9059 208.998 41.2038C208.998 41.4023 208.998 41.5016 208.998 41.7002C208.8 49.4448 204.034 55.4021 200.658 49.5441Z" fill="#4A4A4A"/>
<path d="M277.111 277.413C263.409 277.313 160.049 277.909 159.949 259.938C159.949 258.846 159.949 257.455 160.049 255.768C160.347 244.151 161.538 218.931 162.928 193.91C164.715 160.351 166.701 127.089 166.701 127.089C166.701 127.089 177.226 91.444 189.637 89.8553C202.048 88.2667 279.295 129.372 282.174 181.201C283.763 209.697 290.912 277.512 277.111 277.413Z" fill="#2B478B"/>
<path d="M1.68255 494.856L1.08684 494.26C-0.501789 492.572 -0.303283 489.891 1.38463 488.402L403.109 123.713C404.797 122.124 407.477 122.323 408.967 124.011L409.562 124.607C411.151 126.295 410.953 128.975 409.265 130.465L7.54063 495.055C5.85272 496.643 3.17189 496.544 1.68255 494.856Z" fill="#233862"/>
<path d="M412.541 126.493C411.35 126.096 410.059 125.302 408.967 124.011C404.697 119.047 409.463 113.784 409.463 113.784L436.37 99.7844C436.37 99.7844 420.385 124.905 419.888 125.6C419.491 126.195 416.016 127.784 412.541 126.493Z" fill="#97BDFF"/>
<path d="M412.541 126.493C412.045 124.21 413.335 119.047 413.534 118.252C413.832 117.359 436.37 99.7844 436.37 99.7844C436.37 99.7844 420.385 124.905 419.888 125.6C419.491 126.195 416.016 127.784 412.541 126.493Z" fill="#85ABF7"/>
<path d="M411.052 130.465C413.534 128.975 416.314 126.89 416.314 126.89C409.463 122.224 407.676 116.862 407.676 116.862C403.506 120.039 401.421 125.202 401.421 125.202C401.421 125.202 406.584 131.259 407.577 131.954C405.094 136.72 400.329 144.961 399.931 146.847C399.435 149.33 404.002 151.216 404.002 151.216C406.584 146.947 408.172 136.819 408.768 131.656C409.165 131.458 409.662 131.259 410.158 130.961C410.655 132.351 410.953 134.039 410.655 135.727C409.96 139.103 412.342 137.117 413.038 137.415C413.733 137.713 414.825 137.613 414.626 136.621C414.527 136.72 414.03 133.543 411.052 130.465Z" fill="#F1A34F"/>
<path d="M159.949 255.668C160.247 244.052 161.439 218.832 162.829 193.811C184.672 174.946 205.821 159.358 205.821 159.358C205.821 159.358 212.672 234.818 159.949 255.668Z" fill="#233862"/>
<path d="M211.083 117.855C204.63 109.614 192.417 109.217 185.169 116.763C164.12 138.507 101.27 205.13 102.858 219.825C104.844 237.498 126.39 264.505 181.594 309.781C183.68 321.596 187.155 319.71 187.155 319.71L193.509 313.951C193.509 313.951 197.481 318.618 201.552 316.83C205.622 315.043 206.318 304.717 205.126 303.327C203.935 301.937 191.821 305.214 191.821 305.214C191.821 305.214 144.957 226.179 147.638 221.711C150.219 217.144 211.878 173.953 217.736 162.138C222.005 153.897 221.012 130.465 211.083 117.855Z" fill="#E8945B"/>
</svg>
