<svg width="308" height="631" viewBox="0 0 308 631" fill="none" xmlns="http://www.w3.org/2000/svg">
<path d="M149.994 131.025C149.994 131.025 220.458 201.489 223.192 198.018C225.926 194.548 250.957 145.644 254.743 138.703H268.625C268.625 138.703 260.738 224.521 231.606 241.558C231.606 241.558 154.622 217.895 146.734 196.651C139.057 175.512 149.994 131.025 149.994 131.025Z" fill="#E8945B"/>
<path d="M307.012 143.225C306.171 146.064 303.121 148.483 298.073 147.642L146.524 125.346C137.689 124.294 128.119 122.507 118.233 120.193C77.3222 110.517 41.6698 112.2 46.2972 83.5938C46.4024 82.6473 46.6127 81.806 46.8231 80.8595C54.7108 47.3104 86.0512 67.6081 128.329 77.5992C138.215 79.9129 147.47 82.6473 155.884 85.6972L302.595 135.548C306.486 136.704 307.853 140.28 307.012 143.225Z" fill="#F1A34F"/>
<path d="M307.012 143.225C306.171 146.064 303.121 148.483 298.073 147.642L146.524 125.346C137.689 124.294 128.119 122.506 118.233 120.193C77.3222 110.517 41.6698 112.2 46.2972 83.5938C60.7054 74.6544 88.2599 87.0644 121.704 92.9539C132.221 94.8469 142.107 97.1607 151.151 99.7899L307.012 143.225Z" fill="#E58435"/>
<path d="M271.991 143.751L271.57 125.767C271.57 125.767 271.36 120.614 281.877 124.715C292.394 128.817 283.454 144.382 282.823 145.539C281.246 148.589 272.096 145.749 271.991 143.751Z" fill="#2B478B"/>
<path d="M62.8089 310.023C62.8089 310.023 67.6466 459.364 62.7036 475.56C57.6555 491.861 37.8837 523.096 35.8855 598.082C35.8855 598.082 35.8855 607.758 33.5717 611.965C31.258 616.171 28.5236 627.635 31.258 630.685H95.6217C95.6217 630.685 96.0424 621.745 74.3775 614.278C74.3775 614.278 61.2313 612.701 65.0174 599.449C68.8035 586.303 119.495 497.435 122.335 480.713C125.069 464.097 163.035 324.011 134.955 310.023C106.664 296.036 62.8089 310.023 62.8089 310.023Z" fill="#E8945B"/>
<path d="M167.347 266.168C155.463 323.485 153.044 316.229 142.106 324.642C110.03 349.357 61.9673 324.642 61.9673 324.642C58.076 296.246 56.7088 271.426 57.2347 249.972C57.5502 233.25 59.0225 218.526 61.1259 205.59C72.6945 135.442 105.613 116.933 105.613 116.933C105.613 116.933 135.901 102.735 154.306 117.564C219.406 170.359 181.019 200.542 167.347 266.168Z" fill="#FFB27D"/>
<path d="M62.8089 309.393C62.8089 309.393 55.0263 368.077 162.509 460.311C162.509 460.311 173.026 473.772 175.866 489.022C178.6 504.271 186.278 551.493 231.395 603.551C231.395 603.551 230.238 620.694 231.395 625.321C232.552 629.949 232.552 629.949 232.552 629.949H299.23C299.23 629.949 296.495 615.12 279.773 611.018C263.156 606.812 248.748 596.715 235.813 551.282C222.877 505.954 222.877 441.591 210.361 427.708C197.846 413.826 167.137 296.667 131.59 288.359C96.0423 279.945 62.8089 309.393 62.8089 309.393Z" fill="#FFB27D"/>
<path d="M247.276 116.512C247.276 116.512 240.335 129.027 251.798 131.972C263.262 134.917 270.939 124.715 270.939 124.715C270.939 124.715 259.37 115.565 247.276 116.512Z" fill="#FFB27D"/>
<path d="M162.72 87.9057C162.404 96.1089 159.775 109.886 156.41 119.351C154.727 124.189 152.834 127.87 150.941 129.237C143.999 134.075 93.8337 128.186 98.356 122.717C108.137 110.517 117.181 79.9129 117.181 79.9129C117.181 79.9129 158.408 77.3888 161.878 81.4904C162.614 82.3318 162.825 84.6455 162.72 87.9057Z" fill="#FFB27D"/>
<path d="M162.72 87.9058C162.404 96.109 159.775 109.886 156.41 119.351C141.476 115.46 118.654 95.3728 115.919 96.0038C115.919 96.0038 142.422 88.7471 162.72 87.9058Z" fill="#E8945B"/>
<path d="M160.406 20.3871C160.406 20.3871 195.112 65.2945 174.394 96.1091C174.394 96.1091 113.185 116.617 102.563 78.2303C91.9408 39.8435 118.759 -0.436421 160.406 20.3871Z" fill="#FFB27D"/>
<path d="M58.0763 286.886C58.0763 286.886 49.9783 315.703 57.1298 340.523C64.2813 365.343 58.0763 391.109 58.0763 391.109C58.0763 391.109 114.763 412.038 183.017 364.291C183.017 364.291 160.301 317.28 161.458 309.287C162.615 301.294 162.194 289.621 162.194 289.621L58.0763 286.886Z" fill="#233862"/>
<path d="M181.019 58.1429C175.655 54.2516 155.358 68.9754 148.837 72.2356C142.317 75.4959 126.752 72.2356 126.752 72.2356C120.862 64.9789 113.29 63.9272 118.023 58.1429C123.912 50.8862 131.169 52.3586 133.693 55.8292C136.112 59.2998 168.82 42.683 161.668 16.9165C161.668 16.9165 145.156 -23.3634 81.3186 20.3871C37.5682 50.3604 116.025 96.0039 116.025 96.0039C133.377 107.152 168.399 101.893 174.499 96.1091C180.493 90.4299 186.278 62.0342 181.019 58.1429Z" fill="#4A4A4A"/>
<path d="M57.1297 260.804C57.1297 260.804 99.618 277.421 167.347 266.063L162.194 289.41C162.194 289.41 102.984 308.656 58.0762 286.781L57.1297 260.804Z" fill="#2B478B"/>
<path d="M140.634 166.152C140.634 166.152 104.561 238.298 57.2348 249.972C57.5503 233.25 59.0227 218.526 61.126 205.59C84.7892 185.608 126.226 166.467 140.634 166.152Z" fill="#E8945B"/>
<path d="M113.185 132.077C113.185 132.077 10.75 195.494 6.54318 208.956C2.3364 222.312 1.17958 293.617 1.91576 310.865C1.91576 310.865 -1.23937 332.319 0.54851 337.262C2.33639 342.205 11.6965 354.826 17.3756 351.04C23.1599 347.253 21.6876 326.114 24.2116 325.799C26.7357 325.483 27.6822 332.635 28.8391 330.742C29.996 328.849 28.6287 321.487 18.9531 313.599C18.9531 313.599 35.1492 226.098 38.4095 224.626C55.5521 216.738 138.951 175.512 138.951 175.512C138.951 175.512 163.877 123.032 113.185 132.077Z" fill="#FFB27D"/>
<path d="M172.816 175.933C171.344 175.933 170.082 177.195 170.082 178.667C170.082 180.139 171.344 181.401 172.816 181.401C174.288 181.401 175.55 180.139 175.55 178.667C175.656 177.195 174.394 175.933 172.816 175.933Z" fill="#E8945B"/>
</svg>
